<?xml version="1.0" encoding="UTF-8"?>
<!DOCTYPE svg PUBLIC "-//W3C//DTD SVG 1.1//EN" "http://www.w3.org/Graphics/SVG/1.1/DTD/svg11.dtd">
<!-- Creator: CorelDRAW X7 -->
<svg xmlns="http://www.w3.org/2000/svg" xml:space="preserve" width="2.05096in" height="0.685531in" version="1.1" style="shape-rendering:geometricPrecision; text-rendering:geometricPrecision; image-rendering:optimizeQuality; fill-rule:evenodd; clip-rule:evenodd"
viewBox="0 0 1814 606"
 xmlns:xlink="http://www.w3.org/1999/xlink">
 <defs>
  <style type="text/css">
   <![CDATA[
    .fil1 {fill:#1F884C}
    .fil0 {fill:url(#id0)}
    .fil3 {fill:url(#id1)}
    .fil5 {fill:url(#id2)}
    .fil4 {fill:url(#id3)}
    .fil2 {fill:url(#id4)}
   ]]>
  </style>
  <linearGradient id="id0" gradientUnits="userSpaceOnUse" x1="87.9559" y1="160.089" x2="591.426" y2="160.089">
   <stop offset="0" style="stop-opacity:1; stop-color:#258B4C"/>
   <stop offset="1" style="stop-opacity:1; stop-color:#60B24F"/>
  </linearGradient>
  <linearGradient id="id1" gradientUnits="userSpaceOnUse" x1="289.981" y1="322.002" x2="289.981" y2="605.703">
   <stop offset="0" style="stop-opacity:1; stop-color:#1B874C"/>
   <stop offset="1" style="stop-opacity:1; stop-color:#5BAD4F"/>
  </linearGradient>
  <linearGradient id="id2" gradientUnits="userSpaceOnUse" x1="1129.45" y1="620.151" x2="1122.95" y2="353.327">
   <stop offset="0" style="stop-opacity:1; stop-color:#1D874C"/>
   <stop offset="1" style="stop-opacity:1; stop-color:#56AA4F"/>
  </linearGradient>
  <linearGradient id="id3" gradientUnits="userSpaceOnUse" x1="171.47" y1="605.968" x2="171.47" y2="270.2">
   <stop offset="0" style="stop-opacity:1; stop-color:#16834B"/>
   <stop offset="1" style="stop-opacity:1; stop-color:#56AA4F"/>
  </linearGradient>
  <linearGradient id="id4" gradientUnits="userSpaceOnUse" x1="74.0932" y1="534.569" x2="30.5696" y2="285.856">
   <stop offset="0" style="stop-opacity:1; stop-color:#6ABD50"/>
   <stop offset="1" style="stop-opacity:1; stop-color:#15834B"/>
  </linearGradient>
 </defs>
 <g id="Layer_x0020_1">
  <metadata id="CorelCorpID_0Corel-Layer"/>
  <path class="fil0" d="M116 104c24,10 51,13 78,9 -26,-12 -61,-26 -99,-58 -3,-2 -10,-11 -5,-8 14,9 67,29 117,34 26,3 60,30 91,55 28,22 58,47 93,22 -32,30 -38,31 -74,46 -28,13 -66,-1 -77,-5 -10,-4 -1,-2 3,-2 10,2 30,-3 37,-30 1,-3 2,-5 3,-7 -22,25 -43,44 -88,22 -16,-7 -10,-5 1,-3 18,3 44,1 62,-24 0,0 1,-1 1,-2 -12,8 -25,16 -47,15 -45,-3 -100,-39 -100,-39 0,0 61,35 112,11 -68,12 -141,-51 -108,-36zm-10 -104c3,5 57,46 110,55 72,12 132,140 174,101 -36,37 -99,-57 -163,-81 -26,-9 -44,-7 -83,-32 -6,-4 -46,-33 -38,-43zm317 97c-12,4 -29,8 -51,25 -17,12 -38,17 -41,17 0,0 10,7 29,-3 19,-9 23,-17 33,-21 -6,13 -16,20 -35,27 41,-7 43,-28 65,-45zm-47 49c-23,13 -33,-1 -33,-1 0,0 8,17 31,9 22,-8 32,-29 40,-36 7,-7 11,-9 12,-10 0,0 0,0 0,0l0 0 0 0 0 0 0 0 0 0c-26,14 -27,25 -50,38zm177 -83l0 0 0 0zm-68 196c-9,9 -22,22 -34,25 -66,13 -72,15 -100,36 -21,-69 -84,-76 -121,-52l0 0 0 0 0 0c20,-20 51,-43 90,-59 27,-11 65,-29 76,-55 13,-30 41,-56 48,-46 7,10 24,18 40,8 0,0 -11,31 -1,45 3,3 6,6 10,8l0 0c1,1 1,1 1,1l0 0 0 0 0 0 0 0 0 0c1,0 1,0 1,1l0 0 0 0 0 0 0 0 0 0 0 0 0 0 0 0c1,0 1,0 1,0l0 0 0 0 0 0 0 0c1,1 1,1 1,1l0 0 0 0 0 0 0 0 0 0 0 0 0 0c1,0 1,0 1,1l0 0 0 0 0 0 0 0 0 0 0 0 0 0 0 0 1 0 0 0 0 0 0 0 0 0 0 0 0 0 0 0 0 0 0 0 0 1 0 0 0 0 1 0c0,-2 3,-3 5,-5l0 0 0 0 1 0 0 0 0 0 0 -1 0 0 0 0 0 0 1 0 0 0 0 0 0 0 0 0 0 0 0 0 0 0 0 0 0 0 0 0 0 0 0 0 0 0 0 0 0 0 0 0 0 0 0 0 0 0 0 0 0 0 0 0 0 0 0 0 0 0 0 0 0 -1 0 0 0 0 0 0 0 0 0 0 0 0 0 0 0 0 0 0 0 0 0 0 0 0 0 0 0 0 0 0 0 0 0 0 0 0 0 0 0 0 0 0 0 0 0 0 0 0 1 0 0 0 0 0 0 0 0 0 0 0 0 0 0 0 0 0 0 0 0 0 0 0 0 0 0 0 0 0 0 -1 0 0 0 0 0 0 0 0 0 0 0 0 0 0 0 0 0 0 0 0 0 0 0 0 0 0 0 0 0 0 0 0 0 0 0 0 0 0 0 0 0 0 0 0 0 0 0 0 1 0 0 0 0 0 0 0 0 0 0 0 0 0 0 0 0 0 0 0 0 0 0 0 0 0 0 0 0 0 0 0 0 0 0 0 0 0 0 0 0 0 0 0 0 0 0 0 0 0 0 0 0 0 0 0 0 0 0 -1 0 0 0 0 0 0 0 0 0 0 0 0 0 0 0 0 0 0 0 0 0 0 0 0 0 0 0 0 0 0 0 0 1 0 0 0 0 0 0 0 0 0 0 0 0 0 0 -1 0 0 0 0 0 0 0 0 1 0 0 0 0 0 0 0 0 0 0 0 0 0 0 0 0 0c0,-1 0,-1 0,-1 8,-11 12,-24 14,-27 3,-4 14,-8 26,-10l0 0 0 0c11,-3 12,4 18,2 1,0 1,0 1,0 1,0 1,-1 2,-1 10,-1 18,18 18,18l0 2 -1 0 -14 7 -2 0 -5 -7c0,0 -1,0 -2,0 -7,3 -22,-4 -27,1 -2,3 -9,19 -16,39 -1,5 -5,12 -7,17l0 0 1 0 0 0 0 0 0 0 0 0 0 0 0 0 0 0 0 0 0 0 0 0 0 0 0 0 0 0 0 0 0 0 0 0 0 0 0 0 0 0 0 0 0 0 0 0 0 0 0 0 0 0 0 1 0 0 0 0 0 0 0 0 0 0 0 0 0 0 0 0 0 0 0 0 0 0 0 0 0 0 0 0 0 0 0 0 0 0 0 0 0 0 0 0 0 0 0 0 0 0 0 0 0 0 0 0 0 0 0 0 0 0 0 0 0 0 0 0 0 0 0 0 0 0 0 0 0 0 0 0 0 0 0 0 0 0 0 0 0 0 0 0c0,0 0,0 -1,0 1,2 1,3 1,3 0,0 24,-24 26,-27 5,-4 15,-11 28,-13 5,1 8,10 11,12 11,5 13,29 3,33 -25,-6 -14,-32 -25,-21 -22,20 -34,47 -48,71 0,0 -9,4 -12,4 -8,0 -10,-3 -15,-8zm32 -54l0 0zm-61 -152c2,-5 1,-8 1,-8 0,0 4,3 0,11 0,0 0,0 8,-14 8,-14 6,-19 6,-19 6,15 -9,24 -13,37 0,0 5,-7 11,-12 5,-5 5,-10 5,-10 0,0 0,5 -2,11 -1,3 -3,7 -6,9 -2,2 -3,3 -5,5 4,-4 6,-6 6,-6 12,-6 11,-2 17,-5 2,-1 -10,24 -10,24 0,0 9,-10 17,-15 2,-5 -2,-8 -2,-9 -1,-2 43,-15 47,-17 2,-1 4,-1 5,-2 2,0 4,0 4,0 0,0 0,0 -4,5 -4,4 -9,4 -9,4 0,0 6,2 11,-3 4,-4 5,-5 7,-2 1,1 3,2 5,3 1,1 2,2 3,3 0,0 0,1 0,2 -1,0 -2,2 -2,4 -1,1 0,0 -2,2 -1,2 -3,12 -3,12l-12 1c-14,9 -27,27 -27,27 -14,28 -37,24 -37,24 2,0 3,0 5,1l0 0c-27,4 -25,-6 -34,-13 -9,-7 -26,6 -26,6 5,-8 11,-15 17,-22 -1,0 -2,-1 -3,-1l-2 1 -6 6c0,0 -9,-1 -44,18 -35,19 -56,12 -56,12 0,0 17,5 53,-16 15,-9 27,-14 36,-17 -8,0 -17,-3 -20,-6 0,0 6,5 22,3 9,-1 13,-1 16,-2 -3,-1 -8,-3 -13,-8 -8,-7 -13,-10 -22,-16 0,0 0,0 6,2 6,2 30,2 36,4 0,0 1,1 1,1 -4,-7 -9,-15 -10,-19 -3,-8 -4,-6 -4,-6 0,0 3,2 7,3 4,1 17,4 18,9 1,5 3,11 3,13l1 0c-2,-5 -3,-9 0,-15z"/>
  <path class="fil1" d="M56 137c73,0 73,111 0,111 -31,0 -55,-25 -55,-56 0,-30 24,-55 55,-55z"/>
  <path class="fil2" d="M104 447c1,0 -71,148 -104,89l0 -266c0,0 103,-2 104,83 1,86 0,94 0,94z"/>
  <path class="fil3" d="M238 425c0,0 77,-148 104,-89l0 270c0,0 -103,2 -104,-83 -1,-86 0,-98 0,-98z"/>
  <path class="fil4" d="M343 336c-61,-74 -213,454 -343,200 55,78 209,-444 343,-200z"/>
  <path class="fil5" d="M503 606l-64 0 0 -239 64 0 0 239zm285 -75c0,21 -7,39 -21,53 -14,14 -31,22 -52,22l-169 0 0 -43 139 0c9,0 17,-2 23,-7 8,-5 11,-11 11,-20 0,-21 -14,-31 -43,-31l-70 0c-20,0 -38,-6 -53,-18 -15,-13 -23,-29 -23,-48 0,-21 8,-39 22,-52 15,-13 35,-20 59,-20l161 0 0 41 -142 0c-6,0 -12,3 -19,8 -6,5 -10,12 -10,19 0,8 3,15 10,20 6,6 14,9 22,9l78 0c24,0 43,6 57,18 13,13 20,29 20,49zm259 75l-60 0 -20 -55 -98 0 -22 55 -59 0 98 -239 59 0 102 239zm-98 -96l-32 -84 -32 84 64 0zm355 96l-67 0 -62 -94 -64 0 0 94 -57 0 0 -239 174 0c20,0 37,8 50,23 12,16 19,34 19,54 0,17 -6,31 -17,43 -11,11 -25,18 -42,21l66 98zm-76 -164c0,-11 -4,-20 -12,-26 -9,-5 -20,-8 -34,-8l-71 0 0 66 73 0c10,0 20,-2 28,-7 11,-6 16,-14 16,-25zm345 -75l-114 239 -60 0 -111 -239 65 0 77 182 78 -182 65 0zm241 239l-60 0 -20 -55 -99 0 -21 55 -59 0 98 -239 58 0 103 239zm-99 -96l-32 -84 -31 84 63 0z"/>
 </g>
</svg>
